<svg width="1200" height="800" viewBox="0 0 1200 800" fill="none" xmlns="http://www.w3.org/2000/svg">
  <rect width="1200" height="800" rx="40" fill="#EFFFF9"/>
  <rect x="80" y="500" width="1040" height="200" rx="28" fill="#CCF0DF"/>
  <rect x="130" y="120" width="940" height="330" rx="30" fill="#FFFFFF" stroke="#A8DEC5" stroke-width="8"/>
  <rect x="200" y="190" width="300" height="210" rx="16" fill="#DBF6E9"/>
  <rect x="560" y="190" width="430" height="210" rx="16" fill="#E7FAF1"/>

  <circle cx="540" cy="515" r="35" fill="#F4C7A1"/>
  <rect x="496" y="550" width="88" height="110" rx="22" fill="#20C997"/>
  <rect x="503" y="658" width="24" height="70" rx="10" fill="#2A3D36"/>
  <rect x="543" y="658" width="24" height="70" rx="10" fill="#2A3D36"/>

  <circle cx="665" cy="515" r="35" fill="#F4C7A1"/>
  <rect x="622" y="550" width="86" height="110" rx="22" fill="#339AF0"/>
  <rect x="629" y="658" width="24" height="70" rx="10" fill="#2A3D36"/>
  <rect x="667" y="658" width="24" height="70" rx="10" fill="#2A3D36"/>

  <circle cx="780" cy="515" r="34" fill="#F4C7A1"/>
  <rect x="738" y="550" width="84" height="108" rx="22" fill="#FF922B"/>
  <rect x="744" y="656" width="24" height="72" rx="10" fill="#2A3D36"/>
  <rect x="784" y="656" width="24" height="72" rx="10" fill="#2A3D36"/>

  <text x="170" y="258" fill="#1E5E46" font-size="40" font-family="Segoe UI, Arial" font-weight="700">Campus Visit</text>
  <text x="170" y="303" fill="#2B7A5D" font-size="26" font-family="Segoe UI, Arial">Meet students, teachers, and school leadership</text>
</svg>
