<svg width="1200" height="800" viewBox="0 0 1200 800" fill="none" xmlns="http://www.w3.org/2000/svg">
  <rect width="1200" height="800" rx="40" fill="#F2F8FF"/>
  <rect x="90" y="100" width="1020" height="620" rx="30" fill="#FFFFFF" stroke="#C7DDF5" stroke-width="8"/>
  <rect x="150" y="170" width="900" height="110" rx="20" fill="#D8ECFF"/>
  <rect x="180" y="350" width="840" height="260" rx="20" fill="#EEF6FF"/>
  <rect x="240" y="390" width="260" height="18" rx="9" fill="#8FB8E6"/>
  <rect x="240" y="430" width="320" height="18" rx="9" fill="#8FB8E6"/>

  <circle cx="780" cy="430" r="36" fill="#F4C7A1"/>
  <rect x="735" y="465" width="90" height="118" rx="22" fill="#4AA3DF"/>
  <rect x="742" y="582" width="28" height="70" rx="12" fill="#2D3A4A"/>
  <rect x="787" y="582" width="28" height="70" rx="12" fill="#2D3A4A"/>

  <circle cx="910" cy="430" r="34" fill="#F4C7A1"/>
  <rect x="868" y="465" width="84" height="112" rx="22" fill="#FF8A65"/>
  <rect x="874" y="576" width="26" height="72" rx="12" fill="#37474F"/>
  <rect x="916" y="576" width="26" height="72" rx="12" fill="#37474F"/>

  <text x="180" y="240" fill="#1F3556" font-size="44" font-family="Segoe UI, Arial" font-weight="700">Classroom Learning</text>
  <text x="180" y="285" fill="#3C628E" font-size="28" font-family="Segoe UI, Arial">Focused instruction, active participation, and progress tracking</text>
</svg>
