<svg width="1200" height="800" viewBox="0 0 1200 800" fill="none" xmlns="http://www.w3.org/2000/svg">
  <rect width="1200" height="800" rx="40" fill="#E6F4FF"/>
  <circle cx="1020" cy="120" r="70" fill="#FFD166"/>
  <rect x="60" y="520" width="1080" height="210" rx="28" fill="#CDECCF"/>
  <rect x="160" y="210" width="340" height="260" rx="28" fill="#FFFFFF" stroke="#A8C5E6" stroke-width="8"/>
  <rect x="220" y="280" width="220" height="140" rx="16" fill="#D8EEFF"/>
  <rect x="700" y="190" width="340" height="280" rx="28" fill="#FFFFFF" stroke="#A8C5E6" stroke-width="8"/>
  <rect x="780" y="270" width="190" height="150" rx="14" fill="#D8EEFF"/>
  <circle cx="420" cy="470" r="18" fill="#89B3D9"/>
  <circle cx="820" cy="470" r="18" fill="#89B3D9"/>

  <circle cx="500" cy="395" r="38" fill="#F4C7A1"/>
  <rect x="452" y="432" width="96" height="116" rx="24" fill="#2E86DE"/>
  <rect x="462" y="548" width="30" height="92" rx="12" fill="#34495E"/>
  <rect x="508" y="548" width="30" height="92" rx="12" fill="#34495E"/>

  <circle cx="620" cy="382" r="35" fill="#F4C7A1"/>
  <rect x="575" y="418" width="90" height="120" rx="24" fill="#FF7F50"/>
  <rect x="582" y="538" width="28" height="96" rx="12" fill="#2C3E50"/>
  <rect x="628" y="538" width="28" height="96" rx="12" fill="#2C3E50"/>

  <circle cx="735" cy="400" r="36" fill="#F4C7A1"/>
  <rect x="688" y="436" width="94" height="114" rx="24" fill="#2ECC71"/>
  <rect x="696" y="550" width="28" height="90" rx="12" fill="#2D3436"/>
  <rect x="742" y="550" width="28" height="90" rx="12" fill="#2D3436"/>

  <rect x="560" y="490" width="170" height="18" rx="9" fill="#FFFFFF"/>
  <text x="95" y="110" fill="#1F3556" font-size="44" font-family="Segoe UI, Arial" font-weight="700">Al Mansoor School</text>
  <text x="95" y="158" fill="#3A5D87" font-size="28" font-family="Segoe UI, Arial">Achieve Knowledge From Cradle To Grave</text>
</svg>
