<svg width="1200" height="800" viewBox="0 0 1200 800" fill="none" xmlns="http://www.w3.org/2000/svg">
  <rect width="1200" height="800" rx="40" fill="#EDF4FF"/>
  <rect x="90" y="130" width="1020" height="560" rx="30" fill="#FFFFFF" stroke="#C6D9F7" stroke-width="8"/>
  <rect x="160" y="210" width="360" height="380" rx="20" fill="#DCE9FF"/>
  <rect x="560" y="210" width="470" height="170" rx="20" fill="#E9F1FF"/>
  <rect x="560" y="420" width="470" height="170" rx="20" fill="#E9F1FF"/>

  <circle cx="300" cy="560" r="34" fill="#F4C7A1"/>
  <rect x="258" y="594" width="84" height="104" rx="22" fill="#4C6EF5"/>
  <rect x="264" y="695" width="24" height="52" rx="10" fill="#2B3442"/>
  <rect x="304" y="695" width="24" height="52" rx="10" fill="#2B3442"/>

  <circle cx="415" cy="560" r="34" fill="#F4C7A1"/>
  <rect x="374" y="594" width="82" height="104" rx="22" fill="#15AABF"/>
  <rect x="380" y="695" width="24" height="52" rx="10" fill="#2B3442"/>
  <rect x="418" y="695" width="24" height="52" rx="10" fill="#2B3442"/>

  <text x="170" y="275" fill="#274C86" font-size="40" font-family="Segoe UI, Arial" font-weight="700">Library & Reading</text>
  <text x="170" y="320" fill="#3C69A5" font-size="26" font-family="Segoe UI, Arial">Building vocabulary, confidence, and curiosity</text>
</svg>
